<?xml version="1.0" encoding="UTF-8"?>
<svg id="Layer_1" data-name="Layer 1" xmlns="http://www.w3.org/2000/svg" viewBox="0 0 100 200">
  <defs>
    <style>
      .cls-1, .cls-2 {
        fill: #fff;
      }

      .cls-3 {
        fill: none;
      }

      .cls-3, .cls-4, .cls-2 {
        stroke-miterlimit: 10;
      }

      .cls-3, .cls-2 {
        stroke: #fff;
      }

      .cls-4 {
        fill: #040800;
        stroke: #f2f2f2;
      }
    </style>
  </defs>
  <g id="domino">
    <g>
      <rect x=".5" y=".5" width="99" height="199" rx="9.5" ry="9.5"/>
      <path class="cls-1" d="m90,1c4.96,0,9,4.04,9,9v180c0,4.96-4.04,9-9,9H10c-4.96,0-9-4.04-9-9V10C1,5.04,5.04,1,10,1h80m0-1H10C4.48,0,0,4.48,0,10v180c0,5.52,4.48,10,10,10h80c5.52,0,10-4.48,10-10V10c0-5.52-4.48-10-10-10h0Z"/>
    </g>
    <line class="cls-3" x1="10" y1="100" x2="90" y2="100"/>
    <circle class="cls-2" cx="50" cy="100" r="2.5"/>
  </g>
  <g id="c4">
    <circle class="cls-4" cx="72.69" cy="68.06" r="15"/>
    <path class="cls-4" d="m64.19,63.61h5.68"/>
    <path class="cls-4" d="m67.11,66.37v-5.68"/>
    <path class="cls-4" d="m75.85,73.26h5.68"/>
    <path class="cls-4" d="m78.76,76.03v-5.68"/>
    <path class="cls-4" d="m75.85,63.61h5.68"/>
    <path class="cls-4" d="m78.76,66.37v-5.68"/>
    <path class="cls-4" d="m64.19,73.26h5.68"/>
    <path class="cls-4" d="m67.11,76.03v-5.68"/>
    <path class="cls-4" d="m72.69,56.56v24"/>
    <path class="cls-4" d="m60.19,68.06h24"/>
  </g>
  <g id="c3">
    <circle class="cls-4" cx="30.69" cy="69.06" r="15"/>
    <path class="cls-4" d="m22.19,64.11h5.68"/>
    <path class="cls-4" d="m25.11,66.87v-5.68"/>
    <path class="cls-4" d="m33.85,73.76h5.68"/>
    <path class="cls-4" d="m36.76,76.53v-5.68"/>
    <path class="cls-4" d="m33.85,64.11h5.68"/>
    <path class="cls-4" d="m36.76,66.87v-5.68"/>
    <path class="cls-4" d="m22.19,73.76h5.68"/>
    <path class="cls-4" d="m25.11,76.53v-5.68"/>
    <path class="cls-4" d="m30.69,57.06v24"/>
    <path class="cls-4" d="m18.19,68.56h24"/>
  </g>
  <g id="c2">
    <circle class="cls-4" cx="72.69" cy="30.06" r="15"/>
    <path class="cls-4" d="m64.19,25.11h5.68"/>
    <path class="cls-4" d="m67.11,27.87v-5.68"/>
    <path class="cls-4" d="m75.85,34.76h5.68"/>
    <path class="cls-4" d="m78.76,37.53v-5.68"/>
    <path class="cls-4" d="m75.85,25.11h5.68"/>
    <path class="cls-4" d="m78.76,27.87v-5.68"/>
    <path class="cls-4" d="m64.19,34.76h5.68"/>
    <path class="cls-4" d="m67.11,37.53v-5.68"/>
    <path class="cls-4" d="m72.69,18.06v24"/>
    <path class="cls-4" d="m60.19,29.56h24"/>
  </g>
  <g id="c1">
    <circle class="cls-4" cx="30.69" cy="30.06" r="15"/>
    <path class="cls-4" d="m22.19,25.11h5.68"/>
    <path class="cls-4" d="m25.11,27.87v-5.68"/>
    <path class="cls-4" d="m33.85,34.76h5.68"/>
    <path class="cls-4" d="m36.76,37.53v-5.68"/>
    <path class="cls-4" d="m33.85,25.11h5.68"/>
    <path class="cls-4" d="m36.76,27.87v-5.68"/>
    <path class="cls-4" d="m22.19,34.76h5.68"/>
    <path class="cls-4" d="m25.11,37.53v-5.68"/>
    <path class="cls-4" d="m30.69,18.06v24"/>
    <path class="cls-4" d="m18.19,29.56h24"/>
  </g>
</svg>