<?xml version="1.0" encoding="UTF-8"?>
<svg id="Layer_1" data-name="Layer 1" xmlns="http://www.w3.org/2000/svg" viewBox="0 0 100 200">
  <defs>
    <style>
      .cls-1, .cls-2 {
        fill: #fff;
      }

      .cls-3 {
        fill: none;
      }

      .cls-3, .cls-4, .cls-2 {
        stroke-miterlimit: 10;
      }

      .cls-3, .cls-2 {
        stroke: #fff;
      }

      .cls-4 {
        fill: #040800;
        stroke: #f2f2f2;
      }
    </style>
  </defs>
  <g id="domino">
    <g>
      <path class="cls-3" d="m10,.5h80c5.2,0,9.5,4.3,9.5,9.5v180c0,5.2-4.3,9.5-9.5,9.5H10c-5.2,0-9.5-4.3-9.5-9.5V10C.5,4.8,4.8.5,10,.5Z"/>
      <path class="cls-1" d="m90,1c5,0,9,4,9,9v180c0,5-4,9-9,9H10c-5,0-9-4-9-9V10C1,5,5,1,10,1h80m0-1H10C4.5,0,0,4.5,0,10v180c0,5.5,4.5,10,10,10h80c5.5,0,10-4.5,10-10V10c0-5.5-4.5-10-10-10h0Z"/>
    </g>
    <line class="cls-3" x1="10" y1="100" x2="90" y2="100"/>
    <circle class="cls-2" cx="50" cy="100" r="2.5"/>
  </g>
  <g id="c4">
    <circle class="cls-4" cx="72.7" cy="68.1" r="15"/>
    <path class="cls-4" d="m64.2,63.6h5.7"/>
    <path class="cls-4" d="m67.1,66.4v-5.7"/>
    <path class="cls-4" d="m75.8,73.3h5.7"/>
    <path class="cls-4" d="m78.8,76v-5.7"/>
    <path class="cls-4" d="m75.8,63.6h5.7"/>
    <path class="cls-4" d="m78.8,66.4v-5.7"/>
    <path class="cls-4" d="m64.2,73.3h5.7"/>
    <path class="cls-4" d="m67.1,76v-5.7"/>
    <path class="cls-4" d="m72.7,56.6v24"/>
    <path class="cls-4" d="m60.2,68.1h24"/>
  </g>
  <g id="c3">
    <circle class="cls-4" cx="30.7" cy="69.1" r="15"/>
    <path class="cls-4" d="m22.2,64.1h5.7"/>
    <path class="cls-4" d="m25.1,66.9v-5.7"/>
    <path class="cls-4" d="m33.8,73.8h5.7"/>
    <path class="cls-4" d="m36.8,76.5v-5.7"/>
    <path class="cls-4" d="m33.8,64.1h5.7"/>
    <path class="cls-4" d="m36.8,66.9v-5.7"/>
    <path class="cls-4" d="m22.2,73.8h5.7"/>
    <path class="cls-4" d="m25.1,76.5v-5.7"/>
    <path class="cls-4" d="m30.7,57.1v24"/>
    <path class="cls-4" d="m18.2,68.6h24"/>
  </g>
  <g id="c2">
    <circle class="cls-4" cx="72.7" cy="30.1" r="15"/>
    <path class="cls-4" d="m64.2,25.1h5.7"/>
    <path class="cls-4" d="m67.1,27.9v-5.7"/>
    <path class="cls-4" d="m75.8,34.8h5.7"/>
    <path class="cls-4" d="m78.8,37.5v-5.7"/>
    <path class="cls-4" d="m75.8,25.1h5.7"/>
    <path class="cls-4" d="m78.8,27.9v-5.7"/>
    <path class="cls-4" d="m64.2,34.8h5.7"/>
    <path class="cls-4" d="m67.1,37.5v-5.7"/>
    <path class="cls-4" d="m72.7,18.1v24"/>
    <path class="cls-4" d="m60.2,29.6h24"/>
  </g>
  <g id="c1">
    <circle class="cls-4" cx="30.7" cy="30.1" r="15"/>
    <path class="cls-4" d="m22.2,25.1h5.7"/>
    <path class="cls-4" d="m25.1,27.9v-5.7"/>
    <path class="cls-4" d="m33.8,34.8h5.7"/>
    <path class="cls-4" d="m36.8,37.5v-5.7"/>
    <path class="cls-4" d="m33.8,25.1h5.7"/>
    <path class="cls-4" d="m36.8,27.9v-5.7"/>
    <path class="cls-4" d="m22.2,34.8h5.7"/>
    <path class="cls-4" d="m25.1,37.5v-5.7"/>
    <path class="cls-4" d="m30.7,18.1v24"/>
    <path class="cls-4" d="m18.2,29.6h24"/>
  </g>
  <g id="c4-2" data-name="c4">
    <circle class="cls-4" cx="73.5" cy="166.94" r="15"/>
    <path class="cls-4" d="m65,162.44h5.7"/>
    <path class="cls-4" d="m67.9,165.24v-5.7"/>
    <path class="cls-4" d="m76.6,172.14h5.7"/>
    <path class="cls-4" d="m79.6,174.84v-5.7"/>
    <path class="cls-4" d="m76.6,162.44h5.7"/>
    <path class="cls-4" d="m79.6,165.24v-5.7"/>
    <path class="cls-4" d="m65,172.14h5.7"/>
    <path class="cls-4" d="m67.9,174.84v-5.7"/>
    <path class="cls-4" d="m73.5,155.44v24"/>
    <path class="cls-4" d="m61,166.94h24"/>
  </g>
  <g id="c3-2" data-name="c3">
    <circle class="cls-4" cx="31.5" cy="167.94" r="15"/>
    <path class="cls-4" d="m23,162.94h5.7"/>
    <path class="cls-4" d="m25.9,165.74v-5.7"/>
    <path class="cls-4" d="m34.6,172.64h5.7"/>
    <path class="cls-4" d="m37.6,175.34v-5.7"/>
    <path class="cls-4" d="m34.6,162.94h5.7"/>
    <path class="cls-4" d="m37.6,165.74v-5.7"/>
    <path class="cls-4" d="m23,172.64h5.7"/>
    <path class="cls-4" d="m25.9,175.34v-5.7"/>
    <path class="cls-4" d="m31.5,155.94v24"/>
    <path class="cls-4" d="m19,167.44h24"/>
  </g>
  <g id="c2-2" data-name="c2">
    <circle class="cls-4" cx="73.5" cy="128.94" r="15"/>
    <path class="cls-4" d="m65,123.94h5.7"/>
    <path class="cls-4" d="m67.9,126.74v-5.7"/>
    <path class="cls-4" d="m76.6,133.64h5.7"/>
    <path class="cls-4" d="m79.6,136.34v-5.7"/>
    <path class="cls-4" d="m76.6,123.94h5.7"/>
    <path class="cls-4" d="m79.6,126.74v-5.7"/>
    <path class="cls-4" d="m65,133.64h5.7"/>
    <path class="cls-4" d="m67.9,136.34v-5.7"/>
    <path class="cls-4" d="m73.5,116.94v24"/>
    <path class="cls-4" d="m61,128.44h24"/>
  </g>
  <g id="c1-2" data-name="c1">
    <circle class="cls-4" cx="31.5" cy="128.94" r="15"/>
    <path class="cls-4" d="m23,123.94h5.7"/>
    <path class="cls-4" d="m25.9,126.74v-5.7"/>
    <path class="cls-4" d="m34.6,133.64h5.7"/>
    <path class="cls-4" d="m37.6,136.34v-5.7"/>
    <path class="cls-4" d="m34.6,123.94h5.7"/>
    <path class="cls-4" d="m37.6,126.74v-5.7"/>
    <path class="cls-4" d="m23,133.64h5.7"/>
    <path class="cls-4" d="m25.9,136.34v-5.7"/>
    <path class="cls-4" d="m31.5,116.94v24"/>
    <path class="cls-4" d="m19,128.44h24"/>
  </g>
</svg>