<?xml version="1.0" encoding="UTF-8"?>
<svg xmlns="http://www.w3.org/2000/svg" viewBox="0 0 100 200">
  <defs>
    <style>
      .cls-7, .cls-8 {
        fill: #fff;
      }

      .cls-9 {
        fill: none;
      }

      .cls-9, .cls-10, .cls-8 {
        stroke-miterlimit: 10;
      }

      .cls-9, .cls-8 {
        stroke: #fff;
      }

      .cls-10 {
        fill: #040800;
        stroke: #f2f2f2;
      }
    </style>
  </defs>
  <g id="domino">
    <g>
      <rect x=".5" y=".5" width="99" height="199" rx="9.5" ry="9.5"/>
      <path class="cls-7" d="m90,1c4.96,0,9,4.04,9,9v180c0,4.96-4.04,9-9,9H10c-4.96,0-9-4.04-9-9V10C1,5.04,5.04,1,10,1h80m0-1H10C4.48,0,0,4.48,0,10v180c0,5.52,4.48,10,10,10h80c5.52,0,10-4.48,10-10V10c0-5.52-4.48-10-10-10h0Z"/>
    </g>
    <line class="cls-9" x1="10" y1="100" x2="90" y2="100"/>
    <circle class="cls-8" cx="50" cy="100" r="2.5"/>
  </g>
  <g id="c4">
    <path class="cls-10" d="m65.19,64.11h5.68"/>
    <path class="cls-10" d="m68.11,66.87v-5.68"/>
    <path class="cls-10" d="m76.85,73.76h5.68"/>
    <path class="cls-10" d="m79.76,76.53v-5.68"/>
    <path class="cls-10" d="m76.85,64.11h5.68"/>
    <path class="cls-10" d="m79.76,66.87v-5.68"/>
    <path class="cls-10" d="m65.19,73.76h5.68"/>
    <path class="cls-10" d="m68.11,76.53v-5.68"/>
    <path class="cls-10" d="m73.69,57.06v24"/>
    <path class="cls-10" d="m61.19,68.56h24"/>
  </g>
  <g id="c3">
    <path class="cls-10" d="m22.19,64.11h5.68"/>
    <path class="cls-10" d="m25.11,66.87v-5.68"/>
    <path class="cls-10" d="m33.85,73.76h5.68"/>
    <path class="cls-10" d="m36.76,76.53v-5.68"/>
    <path class="cls-10" d="m33.85,64.11h5.68"/>
    <path class="cls-10" d="m36.76,66.87v-5.68"/>
    <path class="cls-10" d="m22.19,73.76h5.68"/>
    <path class="cls-10" d="m25.11,76.53v-5.68"/>
    <path class="cls-10" d="m30.69,57.06v24"/>
    <path class="cls-10" d="m18.19,68.56h24"/>
  </g>
  <g id="c2">
    <path class="cls-10" d="m64.19,25.11h5.68"/>
    <path class="cls-10" d="m67.11,27.87v-5.68"/>
    <path class="cls-10" d="m75.85,34.76h5.68"/>
    <path class="cls-10" d="m78.76,37.53v-5.68"/>
    <path class="cls-10" d="m75.85,25.11h5.68"/>
    <path class="cls-10" d="m78.76,27.87v-5.68"/>
    <path class="cls-10" d="m64.19,34.76h5.68"/>
    <path class="cls-10" d="m67.11,37.53v-5.68"/>
    <path class="cls-10" d="m72.69,18.06v24"/>
    <path class="cls-10" d="m60.19,29.56h24"/>
  </g>
  <g id="c1">
    <path class="cls-10" d="m22.19,25.11h5.68"/>
    <path class="cls-10" d="m25.11,27.87v-5.68"/>
    <path class="cls-10" d="m33.85,34.76h5.68"/>
    <path class="cls-10" d="m36.76,37.53v-5.68"/>
    <path class="cls-10" d="m33.85,25.11h5.68"/>
    <path class="cls-10" d="m36.76,27.87v-5.68"/>
    <path class="cls-10" d="m22.19,34.76h5.68"/>
    <path class="cls-10" d="m25.11,37.53v-5.68"/>
    <path class="cls-10" d="m30.69,18.06v24"/>
    <path class="cls-10" d="m18.19,29.56h24"/>
  </g>
</svg>