<?xml version="1.0" encoding="UTF-8"?>
<svg xmlns="http://www.w3.org/2000/svg" xmlns:xlink="http://www.w3.org/1999/xlink" viewBox="0 0 291.71 192.97">
  <defs>
    <style>
      .cls-4, .cls-5 {
        fill: #fff;
      }

      .cls-6 {
        fill: none;
      }

      .cls-6, .cls-5 {
        stroke: #fff;
        stroke-miterlimit: 10;
      }
    </style>
  </defs>
  <g id="_5x0" data-name="5x0">
    <g>
      <path d="m100.49,189.24c-2.78,0-5.38-1.36-6.97-3.63L3.04,56.39c-2.69-3.84-1.75-9.15,2.09-11.84L61.55,5.05c1.44-1.01,3.12-1.54,4.87-1.54,2.78,0,5.38,1.36,6.97,3.63l90.48,129.23c1.3,1.86,1.8,4.12,1.41,6.35-.39,2.24-1.64,4.18-3.5,5.49l-56.42,39.51c-1.44,1.01-3.12,1.54-4.87,1.54Z"/>
      <path class="cls-4" d="m66.41,5.01h0c2.29,0,4.43,1.12,5.74,2.99l90.48,129.23c2.21,3.16,1.44,7.54-1.72,9.75l-56.42,39.51c-1.18.83-2.57,1.27-4.01,1.27-2.29,0-4.43-1.12-5.74-2.99L4.27,55.53c-1.07-1.53-1.48-3.39-1.16-5.23.32-1.84,1.35-3.45,2.88-4.52L62.41,6.28c1.18-.83,2.57-1.27,4.01-1.27m0-3c-1.98,0-3.98.59-5.73,1.81L4.27,43.33c-4.52,3.17-5.62,9.4-2.46,13.93l90.48,129.23c1.95,2.78,5.05,4.27,8.2,4.27,1.98,0,3.98-.59,5.73-1.81l56.42-39.51c4.52-3.17,5.62-9.4,2.46-13.93L74.61,6.27c-1.95-2.78-5.05-4.27-8.2-4.27h0Z"/>
    </g>
    <line class="cls-6" x1="54.33" y1="116.77" x2="112.58" y2="75.99"/>
    <circle class="cls-5" cx="83.45" cy="96.38" r="2.22"/>
    <circle class="cls-5" cx="92.95" cy="64.23" r="4.44"/>
    <circle class="cls-5" cx="58.11" cy="60.96" r="4.44"/>
    <circle class="cls-5" cx="66.44" cy="26.37" r="4.44"/>
    <circle class="cls-5" cx="49.78" cy="95.54" r="4.44"/>
    <circle class="cls-5" cx="23.27" cy="57.69" r="4.44"/>
  </g>
  <g id="_3x2" data-name="3x2">
    <g>
      <rect x="106.18" y="1.5" width="85.88" height="174.76" rx="8.5" ry="8.5"/>
      <path class="cls-4" d="m183.56,3c3.86,0,7,3.14,7,7v157.76c0,3.86-3.14,7-7,7h-68.88c-3.86,0-7-3.14-7-7V10c0-3.86,3.14-7,7-7h68.88m0-3h-68.88c-5.52,0-10,4.48-10,10v157.76c0,5.52,4.48,10,10,10h68.88c5.52,0,10-4.48,10-10V10c0-5.52-4.48-10-10-10h0Z"/>
    </g>
    <line class="cls-6" x1="113.57" y1="88.88" x2="184.67" y2="88.88"/>
    <circle class="cls-5" cx="149.12" cy="88.88" r="2.22"/>
    <circle class="cls-5" cx="175.87" cy="105.06" r="4.44"/>
    <circle class="cls-5" cx="122.54" cy="152.16" r="4.44"/>
    <circle class="cls-5" cx="146.9" cy="43.3" r="4.44"/>
    <circle class="cls-5" cx="175.87" cy="21.51" r="4.44"/>
    <circle class="cls-5" cx="122.54" cy="68.62" r="4.44"/>
  </g>
  <g id="_6x1" data-name="6x1">
    <g>
      <path d="m191.21,191.47c-1.75,0-3.43-.53-4.87-1.54l-56.42-39.51c-1.86-1.3-3.1-3.25-3.5-5.49-.39-2.24.11-4.49,1.41-6.35L218.32,9.36c1.59-2.27,4.2-3.63,6.97-3.63,1.75,0,3.43.53,4.87,1.54l56.42,39.51c3.84,2.69,4.78,8,2.09,11.84l-90.48,129.23c-1.59,2.27-4.2,3.62-6.97,3.62Z"/>
      <path class="cls-4" d="m225.29,7.23h0c1.44,0,2.82.44,4.01,1.27l56.42,39.51c3.16,2.21,3.93,6.59,1.72,9.75l-90.49,129.23c-1.31,1.87-3.46,2.99-5.74,2.99-1.44,0-2.82-.44-4.01-1.27l-56.42-39.51c-1.53-1.07-2.55-2.68-2.88-4.52-.32-1.84.09-3.7,1.16-5.23L219.55,10.22c1.31-1.87,3.46-2.99,5.74-2.99m0-3c-3.15,0-6.25,1.49-8.2,4.27l-90.49,129.23c-3.17,4.52-2.07,10.76,2.46,13.93l56.42,39.51c1.75,1.22,3.75,1.81,5.73,1.81,3.15,0,6.25-1.49,8.2-4.27l90.49-129.23c3.17-4.52,2.07-10.76-2.46-13.93L231.02,6.04c-1.75-1.22-3.75-1.81-5.73-1.81h0Z"/>
    </g>
    <line class="cls-6" x1="179.13" y1="78.21" x2="237.37" y2="118.99"/>
    <circle class="cls-5" cx="208.25" cy="98.6" r="2.22"/>
    <circle class="cls-5" cx="241.71" cy="96.53" r="4.44"/>
    <circle class="cls-5" cx="268.22" cy="58.67" r="4.44"/>
    <circle class="cls-5" cx="197.52" cy="66.67" r="4.44"/>
    <circle class="cls-5" cx="224.02" cy="28.81" r="4.44"/>
    <line class="cls-6" x1="179.13" y1="78.21" x2="237.37" y2="118.99"/>
    <circle class="cls-5" cx="208.25" cy="98.6" r="2.22"/>
    <circle class="cls-5" cx="241.71" cy="96.53" r="4.44"/>
    <circle class="cls-5" cx="254.96" cy="77.6" r="4.44"/>
    <circle class="cls-5" cx="268.22" cy="58.67" r="4.44"/>
    <circle class="cls-5" cx="197.52" cy="66.67" r="4.44"/>
    <circle class="cls-5" cx="210.77" cy="47.74" r="4.44"/>
    <circle class="cls-5" cx="224.02" cy="28.81" r="4.44"/>
    <circle class="cls-5" cx="184.7" cy="135.66" r="4.44"/>
  </g>
</svg>