<?xml version="1.0" encoding="UTF-8"?>
<svg xmlns="http://www.w3.org/2000/svg" viewBox="0 0 2880.28 200.74">
  <defs>
    <style>
      .cls-1, .cls-2 {
        fill: #fff;
      }

      .cls-3 {
        fill: none;
      }

      .cls-3, .cls-2 {
        stroke: #fff;
        stroke-miterlimit: 10;
      }
    </style>
  </defs>
  <g id="_0x0" data-name="0x0">
    <g>
      <rect x="2780.78" y=".84" width="99" height="199" rx="9.5" ry="9.5"/>
      <path class="cls-1" d="m2870.28,1.34c4.96,0,9,4.04,9,9v180c0,4.96-4.04,9-9,9h-80c-4.96,0-9-4.04-9-9V10.34c0-4.96,4.04-9,9-9h80m0-1h-80c-5.52,0-10,4.48-10,10v180c0,5.52,4.48,10,10,10h80c5.52,0,10-4.48,10-10V10.34c0-5.52-4.48-10-10-10h0Z"/>
    </g>
    <line class="cls-3" x1="2790.28" y1="100.34" x2="2870.28" y2="100.34"/>
    <circle class="cls-2" cx="2830.28" cy="100.34" r="2.5"/>
  </g>
  <g id="_1x0" data-name="1x0">
    <g>
      <rect x="2677.78" y=".84" width="99" height="199" rx="9.5" ry="9.5"/>
      <path class="cls-1" d="m2767.28,1.34c4.96,0,9,4.04,9,9v180c0,4.96-4.04,9-9,9h-80c-4.96,0-9-4.04-9-9V10.34c0-4.96,4.04-9,9-9h80m0-1h-80c-5.52,0-10,4.48-10,10v180c0,5.52,4.48,10,10,10h80c5.52,0,10-4.48,10-10V10.34c0-5.52-4.48-10-10-10h0Z"/>
    </g>
    <line class="cls-3" x1="2687.28" y1="100.34" x2="2767.28" y2="100.34"/>
    <circle class="cls-2" cx="2727.28" cy="100.34" r="2.5"/>
    <circle class="cls-2" cx="2729.37" cy="55.54" r="5"/>
  </g>
  <g id="_1x1" data-name="1x1">
    <g>
      <rect x="2574.78" y=".84" width="99" height="199" rx="9.5" ry="9.5"/>
      <path class="cls-1" d="m2664.28,1.34c4.96,0,9,4.04,9,9v180c0,4.96-4.04,9-9,9h-80c-4.96,0-9-4.04-9-9V10.34c0-4.96,4.04-9,9-9h80m0-1h-80c-5.52,0-10,4.48-10,10v180c0,5.52,4.48,10,10,10h80c5.52,0,10-4.48,10-10V10.34c0-5.52-4.48-10-10-10h0Z"/>
    </g>
    <line class="cls-3" x1="2584.28" y1="100.34" x2="2664.28" y2="100.34"/>
    <circle class="cls-2" cx="2624.28" cy="100.34" r="2.5"/>
    <circle class="cls-2" cx="2624.37" cy="144.54" r="5"/>
    <circle class="cls-2" cx="2626.37" cy="55.54" r="5"/>
  </g>
  <g id="_2x0" data-name="2x0">
    <g>
      <rect x="2471.78" y=".84" width="99" height="199" rx="9.5" ry="9.5"/>
      <path class="cls-1" d="m2561.28,1.34c4.96,0,9,4.04,9,9v180c0,4.96-4.04,9-9,9h-80c-4.96,0-9-4.04-9-9V10.34c0-4.96,4.04-9,9-9h80m0-1h-80c-5.52,0-10,4.48-10,10v180c0,5.52,4.48,10,10,10h80c5.52,0,10-4.48,10-10V10.34c0-5.52-4.48-10-10-10h0Z"/>
    </g>
    <line class="cls-3" x1="2481.28" y1="100.34" x2="2561.28" y2="100.34"/>
    <circle class="cls-2" cx="2521.28" cy="100.34" r="2.5"/>
    <circle class="cls-2" cx="2551.37" cy="24.54" r="5"/>
    <circle class="cls-2" cx="2491.37" cy="77.54" r="5"/>
  </g>
  <g id="_2x1" data-name="2x1">
    <g>
      <rect x="2368.78" y=".84" width="99" height="199" rx="9.5" ry="9.5"/>
      <path class="cls-1" d="m2458.28,1.34c4.96,0,9,4.04,9,9v180c0,4.96-4.04,9-9,9h-80c-4.96,0-9-4.04-9-9V10.34c0-4.96,4.04-9,9-9h80m0-1h-80c-5.52,0-10,4.48-10,10v180c0,5.52,4.48,10,10,10h80c5.52,0,10-4.48,10-10V10.34c0-5.52-4.48-10-10-10h0Z"/>
    </g>
    <line class="cls-3" x1="2378.28" y1="100.34" x2="2458.28" y2="100.34"/>
    <circle class="cls-2" cx="2418.28" cy="100.34" r="2.5"/>
    <circle class="cls-2" cx="2418.37" cy="144.54" r="5"/>
    <circle class="cls-2" cx="2448.37" cy="24.54" r="5"/>
    <circle class="cls-2" cx="2388.37" cy="77.54" r="5"/>
  </g>
  <g id="_2x2" data-name="2x2">
    <g>
      <rect x="2265.78" y=".84" width="99" height="199" rx="9.5" ry="9.5"/>
      <path class="cls-1" d="m2355.28,1.34c4.96,0,9,4.04,9,9v180c0,4.96-4.04,9-9,9h-80c-4.96,0-9-4.04-9-9V10.34c0-4.96,4.04-9,9-9h80m0-1h-80c-5.52,0-10,4.48-10,10v180c0,5.52,4.48,10,10,10h80c5.52,0,10-4.48,10-10V10.34c0-5.52-4.48-10-10-10h0Z"/>
    </g>
    <line class="cls-3" x1="2275.28" y1="100.34" x2="2355.28" y2="100.34"/>
    <circle class="cls-2" cx="2315.28" cy="100.34" r="2.5"/>
    <circle class="cls-2" cx="2345.37" cy="118.54" r="5"/>
    <circle class="cls-2" cx="2285.37" cy="171.54" r="5"/>
    <circle class="cls-2" cx="2345.37" cy="24.54" r="5"/>
    <circle class="cls-2" cx="2285.37" cy="77.54" r="5"/>
  </g>
  <g id="_3x0" data-name="3x0">
    <g>
      <rect x="2162.78" y=".84" width="99" height="199" rx="9.5" ry="9.5"/>
      <path class="cls-1" d="m2252.28,1.34c4.96,0,9,4.04,9,9v180c0,4.96-4.04,9-9,9h-80c-4.96,0-9-4.04-9-9V10.34c0-4.96,4.04-9,9-9h80m0-1h-80c-5.52,0-10,4.48-10,10v180c0,5.52,4.48,10,10,10h80c5.52,0,10-4.48,10-10V10.34c0-5.52-4.48-10-10-10h0Z"/>
    </g>
    <line class="cls-3" x1="2172.28" y1="100.34" x2="2252.28" y2="100.34"/>
    <circle class="cls-2" cx="2212.28" cy="100.34" r="2.5"/>
    <circle class="cls-2" cx="2212.37" cy="55.54" r="5"/>
    <circle class="cls-2" cx="2242.37" cy="24.54" r="5"/>
    <circle class="cls-2" cx="2182.37" cy="77.54" r="5"/>
  </g>
  <g id="_3x1" data-name="3x1">
    <g>
      <rect x="2059.78" y=".84" width="99" height="199" rx="9.5" ry="9.5"/>
      <path class="cls-1" d="m2149.28,1.34c4.96,0,9,4.04,9,9v180c0,4.96-4.04,9-9,9h-80c-4.96,0-9-4.04-9-9V10.34c0-4.96,4.04-9,9-9h80m0-1h-80c-5.52,0-10,4.48-10,10v180c0,5.52,4.48,10,10,10h80c5.52,0,10-4.48,10-10V10.34c0-5.52-4.48-10-10-10h0Z"/>
    </g>
    <line class="cls-3" x1="2069.28" y1="100.34" x2="2149.28" y2="100.34"/>
    <circle class="cls-2" cx="2109.28" cy="100.34" r="2.5"/>
    <circle class="cls-2" cx="2109.37" cy="149.54" r="5"/>
    <circle class="cls-2" cx="2109.37" cy="55.54" r="5"/>
    <circle class="cls-2" cx="2139.37" cy="24.54" r="5"/>
    <circle class="cls-2" cx="2079.37" cy="77.54" r="5"/>
  </g>
  <g id="_3x2" data-name="3x2">
    <g>
      <rect x="1956.78" y=".84" width="99" height="199" rx="9.5" ry="9.5"/>
      <path class="cls-1" d="m2046.28,1.34c4.96,0,9,4.04,9,9v180c0,4.96-4.04,9-9,9h-80c-4.96,0-9-4.04-9-9V10.34c0-4.96,4.04-9,9-9h80m0-1h-80c-5.52,0-10,4.48-10,10v180c0,5.52,4.48,10,10,10h80c5.52,0,10-4.48,10-10V10.34c0-5.52-4.48-10-10-10h0Z"/>
    </g>
    <line class="cls-3" x1="1966.28" y1="100.34" x2="2046.28" y2="100.34"/>
    <circle class="cls-2" cx="2006.28" cy="100.34" r="2.5"/>
    <circle class="cls-2" cx="2036.37" cy="118.54" r="5"/>
    <circle class="cls-2" cx="1976.37" cy="171.54" r="5"/>
    <circle class="cls-2" cx="2006.37" cy="55.54" r="5"/>
    <circle class="cls-2" cx="2036.37" cy="24.54" r="5"/>
    <circle class="cls-2" cx="1976.37" cy="77.54" r="5"/>
  </g>
  <g id="_3x3" data-name="3x3">
    <g>
      <rect x="1853.78" y=".84" width="99" height="199" rx="9.5" ry="9.5"/>
      <path class="cls-1" d="m1943.28,1.34c4.96,0,9,4.04,9,9v180c0,4.96-4.04,9-9,9h-80c-4.96,0-9-4.04-9-9V10.34c0-4.96,4.04-9,9-9h80m0-1h-80c-5.52,0-10,4.48-10,10v180c0,5.52,4.48,10,10,10h80c5.52,0,10-4.48,10-10V10.34c0-5.52-4.48-10-10-10h0Z"/>
    </g>
    <line class="cls-3" x1="1863.28" y1="100.34" x2="1943.28" y2="100.34"/>
    <circle class="cls-2" cx="1903.28" cy="100.34" r="2.5"/>
    <circle class="cls-2" cx="1903.37" cy="149.54" r="5"/>
    <circle class="cls-2" cx="1933.37" cy="118.54" r="5"/>
    <circle class="cls-2" cx="1873.37" cy="171.54" r="5"/>
    <circle class="cls-2" cx="1903.37" cy="55.54" r="5"/>
    <circle class="cls-2" cx="1933.37" cy="24.54" r="5"/>
    <circle class="cls-2" cx="1873.37" cy="77.54" r="5"/>
  </g>
  <g id="_4x0" data-name="4x0">
    <g>
      <rect x="1750.78" y=".84" width="99" height="199" rx="9.5" ry="9.5"/>
      <path class="cls-1" d="m1840.28,1.34c4.96,0,9,4.04,9,9v180c0,4.96-4.04,9-9,9h-80c-4.96,0-9-4.04-9-9V10.34c0-4.96,4.04-9,9-9h80m0-1h-80c-5.52,0-10,4.48-10,10v180c0,5.52,4.48,10,10,10h80c5.52,0,10-4.48,10-10V10.34c0-5.52-4.48-10-10-10h0Z"/>
    </g>
    <line class="cls-3" x1="1760.28" y1="100.34" x2="1840.28" y2="100.34"/>
    <circle class="cls-2" cx="1800.28" cy="100.34" r="2.5"/>
    <circle class="cls-2" cx="1829.78" cy="76.84" r="5"/>
    <circle class="cls-2" cx="1829.78" cy="24.84" r="5"/>
    <circle class="cls-2" cx="1769.78" cy="77.84" r="5"/>
    <circle class="cls-2" cx="1769.78" cy="25.84" r="5"/>
  </g>
  <g id="_4x1" data-name="4x1">
    <g>
      <rect x="1647.78" y=".84" width="99" height="199" rx="9.5" ry="9.5"/>
      <path class="cls-1" d="m1737.28,1.34c4.96,0,9,4.04,9,9v180c0,4.96-4.04,9-9,9h-80c-4.96,0-9-4.04-9-9V10.34c0-4.96,4.04-9,9-9h80m0-1h-80c-5.52,0-10,4.48-10,10v180c0,5.52,4.48,10,10,10h80c5.52,0,10-4.48,10-10V10.34c0-5.52-4.48-10-10-10h0Z"/>
    </g>
    <line class="cls-3" x1="1657.28" y1="100.34" x2="1737.28" y2="100.34"/>
    <circle class="cls-2" cx="1697.28" cy="100.34" r="2.5"/>
    <circle class="cls-2" cx="1726.78" cy="76.84" r="5"/>
    <circle class="cls-2" cx="1726.78" cy="24.84" r="5"/>
    <circle class="cls-2" cx="1666.78" cy="77.84" r="5"/>
    <circle class="cls-2" cx="1666.78" cy="25.84" r="5"/>
    <circle class="cls-2" cx="1697.37" cy="149.54" r="5"/>
  </g>
  <g id="_4x2" data-name="4x2">
    <g>
      <rect x="1544.78" y=".84" width="99" height="199" rx="9.5" ry="9.5"/>
      <path class="cls-1" d="m1634.28,1.34c4.96,0,9,4.04,9,9v180c0,4.96-4.04,9-9,9h-80c-4.96,0-9-4.04-9-9V10.34c0-4.96,4.04-9,9-9h80m0-1h-80c-5.52,0-10,4.48-10,10v180c0,5.52,4.48,10,10,10h80c5.52,0,10-4.48,10-10V10.34c0-5.52-4.48-10-10-10h0Z"/>
    </g>
    <line class="cls-3" x1="1554.28" y1="100.34" x2="1634.28" y2="100.34"/>
    <circle class="cls-2" cx="1594.28" cy="100.34" r="2.5"/>
    <circle class="cls-2" cx="1623.78" cy="76.84" r="5"/>
    <circle class="cls-2" cx="1623.78" cy="24.84" r="5"/>
    <circle class="cls-2" cx="1563.78" cy="77.84" r="5"/>
    <circle class="cls-2" cx="1563.78" cy="25.84" r="5"/>
    <circle class="cls-2" cx="1624.37" cy="118.54" r="5"/>
    <circle class="cls-2" cx="1564.37" cy="171.54" r="5"/>
  </g>
  <g id="_4x3" data-name="4x3">
    <g>
      <rect x="1441.78" y=".84" width="99" height="199" rx="9.5" ry="9.5"/>
      <path class="cls-1" d="m1531.28,1.34c4.96,0,9,4.04,9,9v180c0,4.96-4.04,9-9,9h-80c-4.96,0-9-4.04-9-9V10.34c0-4.96,4.04-9,9-9h80m0-1h-80c-5.52,0-10,4.48-10,10v180c0,5.52,4.48,10,10,10h80c5.52,0,10-4.48,10-10V10.34c0-5.52-4.48-10-10-10h0Z"/>
    </g>
    <line class="cls-3" x1="1451.28" y1="100.34" x2="1531.28" y2="100.34"/>
    <circle class="cls-2" cx="1491.28" cy="100.34" r="2.5"/>
    <circle class="cls-2" cx="1520.78" cy="76.84" r="5"/>
    <circle class="cls-2" cx="1520.78" cy="24.84" r="5"/>
    <circle class="cls-2" cx="1460.78" cy="77.84" r="5"/>
    <circle class="cls-2" cx="1460.78" cy="25.84" r="5"/>
    <circle class="cls-2" cx="1491.37" cy="149.54" r="5"/>
    <circle class="cls-2" cx="1521.37" cy="118.54" r="5"/>
    <circle class="cls-2" cx="1461.37" cy="171.54" r="5"/>
  </g>
  <g id="_4x4" data-name="4x4">
    <g>
      <rect x="1338.78" y=".84" width="99" height="199" rx="9.5" ry="9.5"/>
      <path class="cls-1" d="m1428.28,1.34c4.96,0,9,4.04,9,9v180c0,4.96-4.04,9-9,9h-80c-4.96,0-9-4.04-9-9V10.34c0-4.96,4.04-9,9-9h80m0-1h-80c-5.52,0-10,4.48-10,10v180c0,5.52,4.48,10,10,10h80c5.52,0,10-4.48,10-10V10.34c0-5.52-4.48-10-10-10h0Z"/>
    </g>
    <line class="cls-3" x1="1348.28" y1="100.34" x2="1428.28" y2="100.34"/>
    <circle class="cls-2" cx="1388.28" cy="100.34" r="2.5"/>
    <circle class="cls-2" cx="1417.78" cy="76.84" r="5"/>
    <circle class="cls-2" cx="1417.78" cy="24.84" r="5"/>
    <circle class="cls-2" cx="1357.78" cy="77.84" r="5"/>
    <circle class="cls-2" cx="1357.78" cy="25.84" r="5"/>
    <circle class="cls-2" cx="1418.37" cy="170.54" r="5"/>
    <circle class="cls-2" cx="1418.37" cy="118.54" r="5"/>
    <circle class="cls-2" cx="1358.37" cy="171.54" r="5"/>
    <circle class="cls-2" cx="1358.37" cy="119.54" r="5"/>
  </g>
  <g id="_5x0" data-name="5x0">
    <g>
      <rect x="1235.78" y=".84" width="99" height="199" rx="9.5" ry="9.5"/>
      <path class="cls-1" d="m1325.28,1.34c4.96,0,9,4.04,9,9v180c0,4.96-4.04,9-9,9h-80c-4.96,0-9-4.04-9-9V10.34c0-4.96,4.04-9,9-9h80m0-1h-80c-5.52,0-10,4.48-10,10v180c0,5.52,4.48,10,10,10h80c5.52,0,10-4.48,10-10V10.34c0-5.52-4.48-10-10-10h0Z"/>
    </g>
    <line class="cls-3" x1="1245.28" y1="100.34" x2="1325.28" y2="100.34"/>
    <circle class="cls-2" cx="1285.28" cy="100.34" r="2.5"/>
    <circle class="cls-2" cx="1314.78" cy="76.84" r="5"/>
    <circle class="cls-2" cx="1287.37" cy="51.54" r="5"/>
    <circle class="cls-2" cx="1314.78" cy="24.84" r="5"/>
    <circle class="cls-2" cx="1254.78" cy="77.84" r="5"/>
    <circle class="cls-2" cx="1254.78" cy="25.84" r="5"/>
  </g>
  <g id="_5x1" data-name="5x1">
    <g>
      <rect x="1132.78" y=".84" width="99" height="199" rx="9.5" ry="9.5"/>
      <path class="cls-1" d="m1222.28,1.34c4.96,0,9,4.04,9,9v180c0,4.96-4.04,9-9,9h-80c-4.96,0-9-4.04-9-9V10.34c0-4.96,4.04-9,9-9h80m0-1h-80c-5.52,0-10,4.48-10,10v180c0,5.52,4.48,10,10,10h80c5.52,0,10-4.48,10-10V10.34c0-5.52-4.48-10-10-10h0Z"/>
    </g>
    <line class="cls-3" x1="1142.28" y1="100.34" x2="1222.28" y2="100.34"/>
    <circle class="cls-2" cx="1182.28" cy="100.34" r="2.5"/>
    <circle class="cls-2" cx="1211.78" cy="76.84" r="5"/>
    <circle class="cls-2" cx="1184.37" cy="51.54" r="5"/>
    <circle class="cls-2" cx="1184.37" cy="149.54" r="5"/>
    <circle class="cls-2" cx="1211.78" cy="24.84" r="5"/>
    <circle class="cls-2" cx="1151.78" cy="77.84" r="5"/>
    <circle class="cls-2" cx="1151.78" cy="25.84" r="5"/>
  </g>
  <g id="_5x2" data-name="5x2">
    <g>
      <rect x="1029.78" y=".84" width="99" height="199" rx="9.5" ry="9.5"/>
      <path class="cls-1" d="m1119.28,1.34c4.96,0,9,4.04,9,9v180c0,4.96-4.04,9-9,9h-80c-4.96,0-9-4.04-9-9V10.34c0-4.96,4.04-9,9-9h80m0-1h-80c-5.52,0-10,4.48-10,10v180c0,5.52,4.48,10,10,10h80c5.52,0,10-4.48,10-10V10.34c0-5.52-4.48-10-10-10h0Z"/>
    </g>
    <line class="cls-3" x1="1039.28" y1="100.34" x2="1119.28" y2="100.34"/>
    <circle class="cls-2" cx="1079.28" cy="100.34" r="2.5"/>
    <circle class="cls-2" cx="1108.78" cy="76.84" r="5"/>
    <circle class="cls-2" cx="1081.37" cy="51.54" r="5"/>
    <circle class="cls-2" cx="1108.78" cy="24.84" r="5"/>
    <circle class="cls-2" cx="1048.78" cy="77.84" r="5"/>
    <circle class="cls-2" cx="1048.78" cy="25.84" r="5"/>
    <circle class="cls-2" cx="1109.37" cy="118.54" r="5"/>
    <circle class="cls-2" cx="1049.37" cy="171.54" r="5"/>
  </g>
  <g id="_5x3" data-name="5x3">
    <g>
      <rect x="926.78" y=".84" width="99" height="199" rx="9.5" ry="9.5"/>
      <path class="cls-1" d="m1016.28,1.34c4.96,0,9,4.04,9,9v180c0,4.96-4.04,9-9,9h-80c-4.96,0-9-4.04-9-9V10.34c0-4.96,4.04-9,9-9h80m0-1h-80c-5.52,0-10,4.48-10,10v180c0,5.52,4.48,10,10,10h80c5.52,0,10-4.48,10-10V10.34c0-5.52-4.48-10-10-10h0Z"/>
    </g>
    <line class="cls-3" x1="936.28" y1="100.34" x2="1016.28" y2="100.34"/>
    <circle class="cls-2" cx="976.28" cy="100.34" r="2.5"/>
    <circle class="cls-2" cx="1005.78" cy="76.84" r="5"/>
    <circle class="cls-2" cx="978.37" cy="51.54" r="5"/>
    <circle class="cls-2" cx="1005.78" cy="24.84" r="5"/>
    <circle class="cls-2" cx="945.78" cy="77.84" r="5"/>
    <circle class="cls-2" cx="945.78" cy="25.84" r="5"/>
    <circle class="cls-2" cx="976.37" cy="149.54" r="5"/>
    <circle class="cls-2" cx="1006.37" cy="118.54" r="5"/>
    <circle class="cls-2" cx="946.37" cy="171.54" r="5"/>
  </g>
  <g id="_5x4" data-name="5x4">
    <g>
      <rect x="823.78" y=".84" width="99" height="199" rx="9.5" ry="9.5"/>
      <path class="cls-1" d="m913.28,1.34c4.96,0,9,4.04,9,9v180c0,4.96-4.04,9-9,9h-80c-4.96,0-9-4.04-9-9V10.34c0-4.96,4.04-9,9-9h80m0-1h-80c-5.52,0-10,4.48-10,10v180c0,5.52,4.48,10,10,10h80c5.52,0,10-4.48,10-10V10.34c0-5.52-4.48-10-10-10h0Z"/>
    </g>
    <line class="cls-3" x1="833.28" y1="100.34" x2="913.28" y2="100.34"/>
    <circle class="cls-2" cx="873.28" cy="100.34" r="2.5"/>
    <circle class="cls-2" cx="902.78" cy="76.84" r="5"/>
    <circle class="cls-2" cx="875.37" cy="51.54" r="5"/>
    <circle class="cls-2" cx="902.78" cy="24.84" r="5"/>
    <circle class="cls-2" cx="842.78" cy="77.84" r="5"/>
    <circle class="cls-2" cx="842.78" cy="25.84" r="5"/>
    <circle class="cls-2" cx="903.37" cy="170.54" r="5"/>
    <circle class="cls-2" cx="903.37" cy="118.54" r="5"/>
    <circle class="cls-2" cx="843.37" cy="171.54" r="5"/>
    <circle class="cls-2" cx="843.37" cy="119.54" r="5"/>
  </g>
  <g id="_5x5" data-name="5x5">
    <g>
      <rect x="720.78" y=".84" width="99" height="199" rx="9.5" ry="9.5"/>
      <path class="cls-1" d="m810.28,1.34c4.96,0,9,4.04,9,9v180c0,4.96-4.04,9-9,9h-80c-4.96,0-9-4.04-9-9V10.34c0-4.96,4.04-9,9-9h80m0-1h-80c-5.52,0-10,4.48-10,10v180c0,5.52,4.48,10,10,10h80c5.52,0,10-4.48,10-10V10.34c0-5.52-4.48-10-10-10h0Z"/>
    </g>
    <line class="cls-3" x1="730.28" y1="100.34" x2="810.28" y2="100.34"/>
    <circle class="cls-2" cx="770.28" cy="100.34" r="2.5"/>
    <circle class="cls-2" cx="799.78" cy="76.84" r="5"/>
    <circle class="cls-2" cx="772.37" cy="51.54" r="5"/>
    <circle class="cls-2" cx="772.37" cy="149.54" r="5"/>
    <circle class="cls-2" cx="799.78" cy="24.84" r="5"/>
    <circle class="cls-2" cx="739.78" cy="77.84" r="5"/>
    <circle class="cls-2" cx="739.78" cy="25.84" r="5"/>
    <circle class="cls-2" cx="800.37" cy="170.54" r="5"/>
    <circle class="cls-2" cx="800.37" cy="118.54" r="5"/>
    <circle class="cls-2" cx="740.37" cy="171.54" r="5"/>
    <circle class="cls-2" cx="740.37" cy="119.54" r="5"/>
  </g>
  <g id="_6x0" data-name="6x0">
    <g>
      <rect x="618.78" y=".84" width="99" height="199" rx="9.5" ry="9.5"/>
      <path class="cls-1" d="m708.28,1.34c4.96,0,9,4.04,9,9v180c0,4.96-4.04,9-9,9h-80c-4.96,0-9-4.04-9-9V10.34c0-4.96,4.04-9,9-9h80m0-1h-80c-5.52,0-10,4.48-10,10v180c0,5.52,4.48,10,10,10h80c5.52,0,10-4.48,10-10V10.34c0-5.52-4.48-10-10-10h0Z"/>
    </g>
    <line class="cls-3" x1="628.28" y1="100.34" x2="708.28" y2="100.34"/>
    <circle class="cls-2" cx="668.28" cy="100.34" r="2.5"/>
    <circle class="cls-2" cx="697.78" cy="76.84" r="5"/>
    <circle class="cls-2" cx="697.78" cy="50.84" r="5"/>
    <circle class="cls-2" cx="697.78" cy="24.84" r="5"/>
    <circle class="cls-2" cx="637.78" cy="77.84" r="5"/>
    <circle class="cls-2" cx="637.78" cy="51.84" r="5"/>
    <circle class="cls-2" cx="637.78" cy="25.84" r="5"/>
  </g>
  <g id="_6x1" data-name="6x1">
    <g>
      <rect x="516.78" y=".84" width="99" height="199" rx="9.5" ry="9.5"/>
      <path class="cls-1" d="m606.28,1.34c4.96,0,9,4.04,9,9v180c0,4.96-4.04,9-9,9h-80c-4.96,0-9-4.04-9-9V10.34c0-4.96,4.04-9,9-9h80m0-1h-80c-5.52,0-10,4.48-10,10v180c0,5.52,4.48,10,10,10h80c5.52,0,10-4.48,10-10V10.34c0-5.52-4.48-10-10-10h0Z"/>
    </g>
    <line class="cls-3" x1="526.28" y1="100.34" x2="606.28" y2="100.34"/>
    <circle class="cls-2" cx="566.28" cy="100.34" r="2.5"/>
    <circle class="cls-2" cx="595.78" cy="76.84" r="5"/>
    <circle class="cls-2" cx="595.78" cy="50.84" r="5"/>
    <circle class="cls-2" cx="595.78" cy="24.84" r="5"/>
    <circle class="cls-2" cx="535.78" cy="77.84" r="5"/>
    <circle class="cls-2" cx="535.78" cy="51.84" r="5"/>
    <circle class="cls-2" cx="535.78" cy="25.84" r="5"/>
    <circle class="cls-2" cx="568.49" cy="149.7" r="5"/>
  </g>
  <g id="_6x2" data-name="6x2">
    <g>
      <rect x="413.44" y="1.24" width="99" height="199" rx="9.5" ry="9.5"/>
      <path class="cls-1" d="m502.94,1.74c4.96,0,9,4.04,9,9v180c0,4.96-4.04,9-9,9h-80c-4.96,0-9-4.04-9-9V10.74c0-4.96,4.04-9,9-9h80m0-1h-80c-5.52,0-10,4.48-10,10v180c0,5.52,4.48,10,10,10h80c5.52,0,10-4.48,10-10V10.74c0-5.52-4.48-10-10-10h0Z"/>
    </g>
    <line class="cls-3" x1="422.94" y1="100.74" x2="502.94" y2="100.74"/>
    <circle class="cls-2" cx="462.94" cy="100.74" r="2.5"/>
    <circle class="cls-2" cx="492.44" cy="77.24" r="5"/>
    <circle class="cls-2" cx="492.44" cy="51.24" r="5"/>
    <circle class="cls-2" cx="492.44" cy="25.24" r="5"/>
    <circle class="cls-2" cx="432.44" cy="78.24" r="5"/>
    <circle class="cls-2" cx="432.44" cy="52.24" r="5"/>
    <circle class="cls-2" cx="432.44" cy="26.24" r="5"/>
    <circle class="cls-2" cx="493.44" cy="124.24" r="5"/>
    <circle class="cls-2" cx="433.44" cy="177.24" r="5"/>
  </g>
  <g id="_6x3" data-name="6x3">
    <g>
      <rect x="309.73" y=".82" width="99" height="199" rx="9.5" ry="9.5"/>
      <path class="cls-1" d="m399.23,1.32c4.96,0,9,4.04,9,9v180c0,4.96-4.04,9-9,9h-80c-4.96,0-9-4.04-9-9V10.32c0-4.96,4.04-9,9-9h80m0-1h-80c-5.52,0-10,4.48-10,10v180c0,5.52,4.48,10,10,10h80c5.52,0,10-4.48,10-10V10.32c0-5.52-4.48-10-10-10h0Z"/>
    </g>
    <line class="cls-3" x1="319.23" y1="100.32" x2="399.23" y2="100.32"/>
    <circle class="cls-2" cx="359.23" cy="100.32" r="2.5"/>
    <circle class="cls-2" cx="388.73" cy="76.82" r="5"/>
    <circle class="cls-2" cx="388.73" cy="50.82" r="5"/>
    <circle class="cls-2" cx="388.73" cy="24.82" r="5"/>
    <circle class="cls-2" cx="328.73" cy="77.82" r="5"/>
    <circle class="cls-2" cx="328.73" cy="51.82" r="5"/>
    <circle class="cls-2" cx="328.73" cy="25.82" r="5"/>
    <circle class="cls-2" cx="361.45" cy="149.68" r="5"/>
    <circle class="cls-2" cx="389.73" cy="123.82" r="5"/>
    <circle class="cls-2" cx="329.73" cy="176.82" r="5"/>
  </g>
  <g id="_6x4" data-name="6x4">
    <g>
      <rect x="206.41" y=".95" width="99" height="199" rx="9.5" ry="9.5"/>
      <path class="cls-1" d="m295.91,1.45c4.96,0,9,4.04,9,9v180c0,4.96-4.04,9-9,9h-80c-4.96,0-9-4.04-9-9V10.45c0-4.96,4.04-9,9-9h80m0-1h-80c-5.52,0-10,4.48-10,10v180c0,5.52,4.48,10,10,10h80c5.52,0,10-4.48,10-10V10.45c0-5.52-4.48-10-10-10h0Z"/>
    </g>
    <line class="cls-3" x1="215.91" y1="100.45" x2="295.91" y2="100.45"/>
    <circle class="cls-2" cx="255.91" cy="100.45" r="2.5"/>
    <circle class="cls-2" cx="285.41" cy="76.95" r="5"/>
    <circle class="cls-2" cx="285.41" cy="50.95" r="5"/>
    <circle class="cls-2" cx="285.41" cy="24.95" r="5"/>
    <circle class="cls-2" cx="225.41" cy="77.95" r="5"/>
    <circle class="cls-2" cx="225.41" cy="51.95" r="5"/>
    <circle class="cls-2" cx="225.41" cy="25.95" r="5"/>
    <circle class="cls-2" cx="286.41" cy="175.95" r="5"/>
    <circle class="cls-2" cx="286.41" cy="123.95" r="5"/>
    <circle class="cls-2" cx="226.41" cy="176.95" r="5"/>
    <circle class="cls-2" cx="226.41" cy="124.95" r="5"/>
  </g>
  <g id="_6x5" data-name="6x5">
    <g>
      <rect x="103.5" y=".5" width="99" height="199" rx="9.5" ry="9.5"/>
      <path class="cls-1" d="m193,1c4.96,0,9,4.04,9,9v180c0,4.96-4.04,9-9,9h-80c-4.96,0-9-4.04-9-9V10c0-4.96,4.04-9,9-9h80m0-1h-80c-5.52,0-10,4.48-10,10v180c0,5.52,4.48,10,10,10h80c5.52,0,10-4.48,10-10V10c0-5.52-4.48-10-10-10h0Z"/>
    </g>
    <line class="cls-3" x1="113" y1="100" x2="193" y2="100"/>
    <circle class="cls-2" cx="153" cy="100" r="2.5"/>
    <circle class="cls-2" cx="182.5" cy="76.5" r="5"/>
    <circle class="cls-2" cx="182.5" cy="50.5" r="5"/>
    <circle class="cls-2" cx="182.5" cy="24.5" r="5"/>
    <circle class="cls-2" cx="122.5" cy="77.5" r="5"/>
    <circle class="cls-2" cx="122.5" cy="51.5" r="5"/>
    <circle class="cls-2" cx="122.5" cy="25.5" r="5"/>
    <circle class="cls-2" cx="183.5" cy="175.5" r="5"/>
    <circle class="cls-2" cx="153" cy="149.5" r="5"/>
    <circle class="cls-2" cx="183.5" cy="123.5" r="5"/>
    <circle class="cls-2" cx="123.5" cy="176.5" r="5"/>
    <circle class="cls-2" cx="123.5" cy="124.5" r="5"/>
  </g>
  <g id="_6x6" data-name="6x6">
    <g>
      <rect x=".5" y=".5" width="99" height="199" rx="9.5" ry="9.5"/>
      <path class="cls-1" d="m90,1c4.96,0,9,4.04,9,9v180c0,4.96-4.04,9-9,9H10c-4.96,0-9-4.04-9-9V10C1,5.04,5.04,1,10,1h80m0-1H10C4.48,0,0,4.48,0,10v180c0,5.52,4.48,10,10,10h80c5.52,0,10-4.48,10-10V10c0-5.52-4.48-10-10-10h0Z"/>
    </g>
    <line class="cls-3" x1="10" y1="100" x2="90" y2="100"/>
    <circle class="cls-2" cx="50" cy="100" r="2.5"/>
    <circle class="cls-2" cx="79.5" cy="76.5" r="5"/>
    <circle class="cls-2" cx="79.5" cy="50.5" r="5"/>
    <circle class="cls-2" cx="79.5" cy="24.5" r="5"/>
    <circle class="cls-2" cx="19.5" cy="77.5" r="5"/>
    <circle class="cls-2" cx="19.5" cy="51.5" r="5"/>
    <circle class="cls-2" cx="19.5" cy="25.5" r="5"/>
    <circle class="cls-2" cx="80.21" cy="174.36" r="5"/>
    <circle class="cls-2" cx="80.21" cy="148.36" r="5"/>
    <circle class="cls-2" cx="80.21" cy="122.36" r="5"/>
    <circle class="cls-2" cx="20.21" cy="175.36" r="5"/>
    <circle class="cls-2" cx="20.21" cy="149.36" r="5"/>
    <circle class="cls-2" cx="20.21" cy="123.36" r="5"/>
  </g>
</svg>