<?xml version="1.0" encoding="UTF-8"?>
<svg id="Layer_1" data-name="Layer 1" xmlns="http://www.w3.org/2000/svg" viewBox="0 0 165.2 134.59">
  <defs>
    <style>
      .cls-1 {
        stroke: #fff;
        stroke-miterlimit: 10;
      }
    </style>
  </defs>
  <path class="cls-1" d="m118.46,1.2c-28.48-4.69-50.04,15.35-57.7,22.47-14.46,13.44-22.48,30.82-24,34.21-6.54,14.57-5.11,20.22-12.77,30.13C13.01,102.23.77,102.62.5,109.46c-.34,8.92,20.12,18.19,36.77,21.96,24.84,5.63,64.73,4.36,94.98-23.49,6.78-6.24,41.67-38.38,30.13-72-6.63-19.3-26.05-31.78-43.91-34.72Z"/>
  <path class="cls-1" d="m157.51,1.96c-.5,1.28-1.33,3.06-2.68,4.98-1.8,2.55-3.78,4.27-4.79,5.07-3.58,2.87-5.9,3.15-5.94,4.6-.03,1.24,1.65,2.58,3.26,2.97,6.22,1.49,16.24-10.26,13.98-15.13-.46-.99-1.54-1.93-3.83-2.49Z"/>
</svg>