<?xml version="1.0" encoding="UTF-8"?>
<svg id="Layer_1" data-name="Layer 1" xmlns="http://www.w3.org/2000/svg" viewBox="0 0 172.17 151.59">
  <defs>
    <style>
      .cls-1 {
        stroke: #fff;
        stroke-miterlimit: 10;
        stroke-width: 5px;
      }
    </style>
  </defs>
  <path class="cls-1" d="m120.46,16.2c-28.48-4.69-50.04,15.35-57.7,22.47-14.46,13.44-22.48,30.82-24,34.21-6.54,14.57-5.11,20.22-12.77,30.13-10.99,14.22-23.23,14.61-23.49,21.45-.34,8.92,20.12,18.19,36.77,21.96,24.84,5.63,64.73,4.36,94.98-23.49,6.78-6.24,41.67-38.38,30.13-72-6.63-19.3-26.05-31.78-43.91-34.72Z"/>
  <path class="cls-1" d="m160.83,2.95c-1.07,2.72-2.83,6.52-5.7,10.59-3.83,5.43-8.05,9.08-10.18,10.8-7.61,6.11-12.55,6.71-12.63,9.78-.06,2.64,3.51,5.5,6.93,6.31,13.23,3.16,34.55-21.83,29.74-32.18-.98-2.11-3.28-4.1-8.15-5.3Z"/>
</svg>